<?xml version="1.0" standalone="no"?>
<!DOCTYPE svg PUBLIC "-//W3C//DTD SVG 20010904//EN"
 "http://www.w3.org/TR/2001/REC-SVG-20010904/DTD/svg10.dtd">
<svg version="1.0" xmlns="http://www.w3.org/2000/svg"
 width="700.000000pt" height="700.000000pt" viewBox="0 0 700.000000 700.000000"
 preserveAspectRatio="xMidYMid meet">
<metadata>
Created by potrace 1.11, written by Peter Selinger 2001-2013
</metadata>
<g transform="translate(0.000000,700.000000) scale(0.100000,-0.100000)"
fill="#000000" stroke="none">
<path d="M3149 6996 c-2 -2 -46 -7 -97 -10 -51 -4 -99 -9 -105 -11 -7 -2 -35
-6 -63 -9 -63 -6 -280 -50 -383 -77 -1158 -304 -2076 -1220 -2386 -2379 -34
-127 -69 -294 -80 -385 -4 -27 -8 -61 -11 -75 -26 -162 -25 -692 1 -825 2 -11
7 -40 10 -65 28 -231 134 -617 224 -814 17 -36 31 -69 31 -72 0 -7 110 -226
138 -275 39 -70 48 -83 126 -203 205 -313 408 -533 757 -819 52 -42 335 -229
409 -270 318 -174 628 -288 985 -363 25 -5 140 -24 180 -30 17 -2 44 -6 60 -9
125 -20 548 -27 711 -13 912 82 1757 536 2329 1253 235 294 428 644 550 995
33 96 82 265 90 309 3 19 8 37 10 41 2 3 6 20 10 36 16 88 36 204 41 240 2 23
7 53 9 65 29 151 27 634 -5 859 -38 271 -134 630 -222 830 -11 25 -27 61 -35
80 -32 73 -125 255 -174 337 -460 780 -1205 1341 -2069 1558 -74 19 -148 37
-165 40 -16 2 -56 9 -87 15 -94 17 -101 18 -174 25 -38 4 -78 10 -89 12 -23 5
-521 13 -526 9z m-954 -1590 c221 -190 486 -463 709 -729 46 -55 51 -58 80
-52 95 21 257 33 416 30 180 -4 230 -8 314 -27 57 -13 39 -29 161 147 114 166
211 292 314 410 57 65 345 348 391 385 l36 28 46 -57 c50 -63 167 -236 214
-316 16 -27 37 -63 46 -80 35 -60 156 -302 188 -375 18 -41 38 -88 45 -105 60
-135 217 -582 240 -684 2 -9 25 -92 51 -186 25 -93 47 -177 49 -185 2 -8 21
-96 43 -195 33 -148 65 -302 88 -430 18 -105 55 -330 59 -370 3 -27 8 -57 10
-65 2 -8 7 -37 10 -65 3 -27 8 -61 10 -75 3 -14 7 -47 11 -75 3 -27 7 -61 9
-75 2 -14 7 -52 10 -85 4 -33 8 -71 10 -85 4 -28 10 -77 25 -228 l11 -104 -36
-46 c-54 -70 -180 -206 -270 -293 -386 -372 -859 -634 -1375 -764 -176 -44
-180 -44 -300 -60 -30 -4 -57 -9 -60 -11 -43 -24 -740 -23 -780 1 -3 2 -29 6
-57 9 -196 22 -547 121 -761 215 -413 182 -750 422 -1062 757 -76 82 -181 214
-176 222 2 4 7 52 10 107 4 55 9 116 11 135 2 19 7 69 11 110 3 41 8 86 9 100
1 14 6 61 10 105 4 44 9 87 10 95 3 15 10 78 20 163 9 86 16 141 30 237 8 52
17 115 20 140 3 25 13 86 21 135 8 50 17 104 20 120 3 17 16 91 30 165 14 74
27 149 30 165 3 17 12 59 20 95 8 36 17 79 20 95 3 17 30 125 59 240 131 517
299 953 496 1290 35 61 150 227 187 273 l34 41 81 -67 c45 -36 114 -93 152
-126z"/>
<path d="M2403 4046 c-164 -40 -306 -166 -362 -321 -124 -346 134 -702 500
-689 269 9 491 239 489 504 -1 122 -19 186 -78 279 -115 183 -342 277 -549
227z m224 -294 c184 -95 159 -367 -41 -427 -144 -44 -296 66 -296 214 0 101
46 176 134 218 62 29 139 27 203 -5z"/>
<path d="M4065 4041 c-187 -52 -330 -207 -371 -405 -7 -32 -6 -136 1 -181 38
-230 251 -413 490 -419 192 -6 365 92 459 259 46 81 63 144 65 245 7 339 -317
590 -644 501z m230 -285 c124 -57 170 -189 110 -312 -55 -113 -190 -160 -303
-107 -100 47 -151 152 -127 261 16 68 57 120 125 155 68 34 127 35 195 3z"/>
<path d="M3250 2904 c-82 -12 -152 -40 -187 -74 -103 -96 -57 -278 96 -383
l47 -32 -1 -90 c-3 -145 -22 -199 -87 -242 -32 -21 -51 -27 -95 -26 -87 1
-161 40 -213 111 -40 55 -83 83 -128 84 -123 1 -187 -128 -115 -233 40 -58 60
-78 108 -115 187 -140 459 -157 635 -39 48 32 50 33 72 16 111 -85 294 -117
445 -78 187 49 356 198 356 313 0 67 -48 129 -104 134 -65 6 -80 -1 -145 -61
-93 -86 -198 -130 -292 -121 -45 4 -105 65 -119 119 -6 22 -11 83 -12 134 l-1
94 47 30 c140 89 198 258 123 361 -61 83 -250 126 -430 98z"/>
</g>
</svg>
